<svg
          width="133"
          height="17"
          viewBox="0 0 133 17"
          fill="#ffffff"
          xmlns="http://www.w3.org/2000/svg"
        >
          <path
            d="M0 16.7182V0.281767H5.16C8.12 0.281767 10.296 1.01749 11.688 2.48895C13.096 3.96041 13.8 5.97974 13.8 8.54696C13.8 11.0672 13.096 13.0631 11.688 14.5345C10.296 15.9903 8.12 16.7182 5.16 16.7182H0ZM2.016 15.0746H5.112C6.744 15.0746 8.04 14.8163 9 14.2997C9.976 13.7675 10.672 13.0161 11.088 12.0456C11.504 11.0594 11.712 9.89319 11.712 8.54696C11.712 7.16943 11.504 5.98757 11.088 5.00138C10.672 4.01519 9.976 3.25599 9 2.72376C8.04 2.19153 6.744 1.92541 5.112 1.92541H2.016V15.0746Z"
          />
          <path
            d="M22.4949 17C21.3749 17 20.3669 16.7495 19.4709 16.2486C18.5749 15.7477 17.8629 15.0433 17.3349 14.1354C16.8229 13.2118 16.5669 12.1317 16.5669 10.895C16.5669 9.65838 16.8309 8.5861 17.3589 7.67818C17.8869 6.7546 18.5989 6.04236 19.4949 5.54144C20.4069 5.04052 21.4229 4.79006 22.5429 4.79006C23.6629 4.79006 24.6709 5.04052 25.5669 5.54144C26.4629 6.04236 27.1669 6.7546 27.6789 7.67818C28.2069 8.5861 28.4709 9.65838 28.4709 10.895C28.4709 12.1317 28.2069 13.2118 27.6789 14.1354C27.1509 15.0433 26.4309 15.7477 25.5189 16.2486C24.6229 16.7495 23.6149 17 22.4949 17ZM22.4949 15.3094C23.1829 15.3094 23.8229 15.145 24.4149 14.8163C25.0069 14.4876 25.4869 13.9945 25.8549 13.337C26.2229 12.6796 26.4069 11.8656 26.4069 10.895C26.4069 9.92449 26.2229 9.1105 25.8549 8.45304C25.5029 7.79558 25.0309 7.30249 24.4389 6.97376C23.8469 6.64503 23.2149 6.48066 22.5429 6.48066C21.8549 6.48066 21.2149 6.64503 20.6229 6.97376C20.0309 7.30249 19.5509 7.79558 19.1829 8.45304C18.8149 9.1105 18.6309 9.92449 18.6309 10.895C18.6309 11.8656 18.8149 12.6796 19.1829 13.337C19.5509 13.9945 20.0229 14.4876 20.5989 14.8163C21.1909 15.145 21.8229 15.3094 22.4949 15.3094Z"
          />
          <path
            d="M37.2261 17C36.0901 17 35.0661 16.7495 34.1541 16.2486C33.2581 15.732 32.5461 15.0198 32.0181 14.1119C31.5061 13.1883 31.2501 12.116 31.2501 10.895C31.2501 9.67403 31.5061 8.60958 32.0181 7.70166C32.5461 6.77809 33.2581 6.06584 34.1541 5.56492C35.0661 5.04834 36.0901 4.79006 37.2261 4.79006C38.6341 4.79006 39.8181 5.15009 40.7781 5.87017C41.7541 6.59024 42.3701 7.55295 42.6261 8.75829H40.5621C40.4021 8.03821 40.0101 7.4825 39.3861 7.09116C38.7621 6.68416 38.0341 6.48066 37.2021 6.48066C36.5301 6.48066 35.8981 6.64503 35.3061 6.97376C34.7141 7.30249 34.2341 7.79558 33.8661 8.45304C33.4981 9.1105 33.3141 9.92449 33.3141 10.895C33.3141 11.8656 33.4981 12.6796 33.8661 13.337C34.2341 13.9945 34.7141 14.4954 35.3061 14.8398C35.8981 15.1685 36.5301 15.3329 37.2021 15.3329C38.0341 15.3329 38.7621 15.1372 39.3861 14.7459C40.0101 14.3389 40.4021 13.7675 40.5621 13.0318H42.6261C42.3861 14.2058 41.7781 15.1607 40.8021 15.8964C39.8261 16.6321 38.6341 17 37.2261 17Z"
          />
          <path
            d="M50.2974 16.7182C49.2094 16.7182 48.3534 16.4599 47.7294 15.9434C47.1054 15.4268 46.7934 14.4954 46.7934 13.1492V6.73895H44.7294V5.07182H46.7934L47.0574 2.27762H48.8094V5.07182H52.3134V6.73895H48.8094V13.1492C48.8094 13.8849 48.9614 14.3858 49.2654 14.6519C49.5694 14.9024 50.1054 15.0276 50.8734 15.0276H52.1214V16.7182H50.2974Z"
          />
          <path
            d="M60.4506 17C59.3306 17 58.3226 16.7495 57.4266 16.2486C56.5306 15.7477 55.8186 15.0433 55.2906 14.1354C54.7786 13.2118 54.5226 12.1317 54.5226 10.895C54.5226 9.65838 54.7866 8.5861 55.3146 7.67818C55.8426 6.7546 56.5546 6.04236 57.4506 5.54144C58.3626 5.04052 59.3786 4.79006 60.4986 4.79006C61.6186 4.79006 62.6266 5.04052 63.5226 5.54144C64.4186 6.04236 65.1226 6.7546 65.6346 7.67818C66.1626 8.5861 66.4266 9.65838 66.4266 10.895C66.4266 12.1317 66.1626 13.2118 65.6346 14.1354C65.1066 15.0433 64.3866 15.7477 63.4746 16.2486C62.5786 16.7495 61.5706 17 60.4506 17ZM60.4506 15.3094C61.1386 15.3094 61.7786 15.145 62.3706 14.8163C62.9626 14.4876 63.4426 13.9945 63.8106 13.337C64.1786 12.6796 64.3626 11.8656 64.3626 10.895C64.3626 9.92449 64.1786 9.1105 63.8106 8.45304C63.4586 7.79558 62.9866 7.30249 62.3946 6.97376C61.8026 6.64503 61.1706 6.48066 60.4986 6.48066C59.8106 6.48066 59.1706 6.64503 58.5786 6.97376C57.9866 7.30249 57.5066 7.79558 57.1386 8.45304C56.7706 9.1105 56.5866 9.92449 56.5866 10.895C56.5866 11.8656 56.7706 12.6796 57.1386 13.337C57.5066 13.9945 57.9786 14.4876 58.5546 14.8163C59.1466 15.145 59.7786 15.3094 60.4506 15.3094Z"
          />
          <path
            d="M69.7097 16.7182V5.07182H71.5337L71.7017 7.30249C72.0697 6.53545 72.6297 5.92495 73.3817 5.47099C74.1337 5.01704 75.0617 4.79006 76.1657 4.79006V6.85635H75.6137C74.9097 6.85635 74.2617 6.98158 73.6697 7.23204C73.0777 7.46685 72.6057 7.87385 72.2537 8.45304C71.9017 9.03223 71.7257 9.83057 71.7257 10.8481V16.7182H69.7097Z"
          />
          <path
            d="M86.4924 17C84.7964 17 83.3404 16.6478 82.1244 15.9434C80.9084 15.2233 79.9724 14.2293 79.3164 12.9613C78.6604 11.6777 78.3324 10.1984 78.3324 8.52348C78.3324 6.84853 78.6604 5.36924 79.3164 4.08563C79.9724 2.80203 80.9084 1.80018 82.1244 1.08011C83.3404 0.360037 84.7964 0 86.4924 0C88.5084 0 90.1564 0.493094 91.4364 1.47928C92.7324 2.44982 93.5404 3.81952 93.8604 5.5884H90.4764C90.2684 4.69613 89.8204 3.99954 89.1324 3.49862C88.4604 2.98204 87.5644 2.72376 86.4444 2.72376C84.8924 2.72376 83.6764 3.24033 82.7964 4.27348C81.9164 5.30663 81.4764 6.7233 81.4764 8.52348C81.4764 10.3237 81.9164 11.7403 82.7964 12.7735C83.6764 13.791 84.8924 14.2997 86.4444 14.2997C87.5644 14.2997 88.4604 14.0649 89.1324 13.5953C89.8204 13.11 90.2684 12.4448 90.4764 11.5994H93.8604C93.5404 13.2901 92.7324 14.6128 91.4364 15.5677C90.1564 16.5226 88.5084 17 86.4924 17Z"
          />
          <path
            d="M101.092 17C100.068 17 99.2278 16.8435 98.5718 16.5304C97.9158 16.2017 97.4277 15.7712 97.1077 15.239C96.7877 14.7067 96.6278 14.1197 96.6278 13.4779C96.6278 12.3978 97.0598 11.5212 97.9238 10.8481C98.7878 10.175 100.084 9.8384 101.812 9.8384H104.836V9.55663C104.836 8.75829 104.604 8.17127 104.14 7.79558C103.676 7.41989 103.1 7.23204 102.412 7.23204C101.788 7.23204 101.244 7.38076 100.78 7.67818C100.316 7.95994 100.028 8.3826 99.9157 8.94613H96.9157C96.9957 8.10083 97.2837 7.3651 97.7797 6.73895C98.2917 6.1128 98.9477 5.63536 99.7477 5.30663C100.548 4.96225 101.444 4.79006 102.436 4.79006C104.132 4.79006 105.468 5.20488 106.444 6.03453C107.42 6.86418 107.908 8.03821 107.908 9.55663V16.7182H105.292L105.004 14.8398C104.652 15.4659 104.156 15.9825 103.516 16.3895C102.892 16.7965 102.084 17 101.092 17ZM101.788 14.6519C102.668 14.6519 103.348 14.3702 103.828 13.8066C104.324 13.2431 104.636 12.5465 104.764 11.7169H102.148C101.332 11.7169 100.748 11.8656 100.396 12.163C100.044 12.4448 99.8678 12.797 99.8678 13.2196C99.8678 13.6736 100.044 14.0258 100.396 14.2762C100.748 14.5267 101.212 14.6519 101.788 14.6519Z"
          />
          <path
            d="M111.319 16.7182V5.07182H114.055L114.343 7.25552C114.775 6.50414 115.359 5.9093 116.095 5.47099C116.847 5.01704 117.727 4.79006 118.735 4.79006V7.95994H117.871C117.199 7.95994 116.599 8.06169 116.071 8.26519C115.543 8.46869 115.127 8.8209 114.823 9.32182C114.535 9.82274 114.391 10.5193 114.391 11.4116V16.7182H111.319Z"
          />
          <path
            d="M126.888 17C125.688 17 124.624 16.7495 123.696 16.2486C122.768 15.7477 122.04 15.0433 121.512 14.1354C120.984 13.2274 120.72 12.1786 120.72 10.989C120.72 9.78361 120.976 8.71133 121.488 7.7721C122.016 6.83287 122.736 6.10497 123.648 5.5884C124.576 5.05617 125.664 4.79006 126.912 4.79006C128.08 4.79006 129.112 5.04052 130.008 5.54144C130.904 6.04236 131.6 6.73112 132.096 7.60774C132.608 8.46869 132.864 9.4314 132.864 10.4959C132.864 10.668 132.856 10.8481 132.84 11.0359C132.84 11.2238 132.832 11.4194 132.816 11.6229H123.768C123.832 12.5308 124.152 13.2431 124.728 13.7597C125.32 14.2762 126.032 14.5345 126.864 14.5345C127.488 14.5345 128.008 14.4015 128.424 14.1354C128.856 13.8536 129.176 13.4936 129.384 13.0552H132.504C132.28 13.791 131.904 14.4641 131.376 15.0746C130.864 15.6694 130.224 16.139 129.456 16.4834C128.704 16.8278 127.848 17 126.888 17ZM126.912 7.23204C126.16 7.23204 125.496 7.44337 124.92 7.86602C124.344 8.27302 123.976 8.89917 123.816 9.74448H129.744C129.696 8.97744 129.408 8.36694 128.88 7.91298C128.352 7.45902 127.696 7.23204 126.912 7.23204Z"
          />
        </svg>